<mxfile host="app.diagrams.net" modified="2024-04-18T09:56:11.724Z" agent="Mozilla/5.0 (Windows NT 10.0; Win64; x64) AppleWebKit/537.36 (KHTML, like Gecko) Chrome/123.0.0.0 Safari/537.36" etag="iu7wdPCADIzhVtZyU0rp" version="24.2.5" type="device">
  <diagram name="Page-1" id="wZUrVf1LZMK-R1Er04Md">
    <mxGraphModel dx="819" dy="426" grid="1" gridSize="10" guides="1" tooltips="1" connect="1" arrows="1" fold="1" page="1" pageScale="1" pageWidth="827" pageHeight="1169" math="0" shadow="0">
      <root>
        <mxCell id="0" />
        <mxCell id="1" parent="0" />
        <mxCell id="gm0JFeF3O6ndESceIS2O-8" value="Loiter circle" style="ellipse;whiteSpace=wrap;html=1;aspect=fixed;fontFamily=Helvetica;fontSize=11;fontColor=default;labelBackgroundColor=none;fillColor=none;dashed=1;dashPattern=12 12;labelPosition=center;verticalLabelPosition=bottom;align=center;verticalAlign=top;" vertex="1" parent="1">
          <mxGeometry x="85" y="245" width="320" height="320" as="geometry" />
        </mxCell>
        <mxCell id="gm0JFeF3O6ndESceIS2O-3" value="2000m" style="rounded=0;orthogonalLoop=1;jettySize=auto;html=1;exitX=1;exitY=0.5;exitDx=0;exitDy=0;entryX=0;entryY=0.5;entryDx=0;entryDy=0;startArrow=open;startFill=0;endArrow=open;endFill=0;labelPosition=center;verticalLabelPosition=top;align=center;verticalAlign=bottom;labelBackgroundColor=none;" edge="1" parent="1" source="gm0JFeF3O6ndESceIS2O-1" target="gm0JFeF3O6ndESceIS2O-2">
          <mxGeometry relative="1" as="geometry" />
        </mxCell>
        <mxCell id="gm0JFeF3O6ndESceIS2O-1" value="lp" style="ellipse;whiteSpace=wrap;html=1;aspect=fixed;fillColor=#000000;strokeColor=none;labelPosition=center;verticalLabelPosition=bottom;align=center;verticalAlign=top;labelBackgroundColor=none;" vertex="1" parent="1">
          <mxGeometry x="400" y="240" width="10" height="10" as="geometry" />
        </mxCell>
        <mxCell id="gm0JFeF3O6ndESceIS2O-2" value="fo" style="ellipse;whiteSpace=wrap;html=1;aspect=fixed;fillColor=#000000;strokeColor=none;labelPosition=center;verticalLabelPosition=bottom;align=center;verticalAlign=top;labelBackgroundColor=none;" vertex="1" parent="1">
          <mxGeometry x="560" y="240" width="10" height="10" as="geometry" />
        </mxCell>
        <mxCell id="gm0JFeF3O6ndESceIS2O-5" value="wait distance" style="edgeStyle=none;rounded=0;orthogonalLoop=1;jettySize=auto;html=1;exitX=1;exitY=0.5;exitDx=0;exitDy=0;entryX=0;entryY=0.5;entryDx=0;entryDy=0;strokeColor=default;align=center;verticalAlign=bottom;fontFamily=Helvetica;fontSize=11;fontColor=default;labelBackgroundColor=none;startArrow=open;startFill=0;endArrow=open;endFill=0;labelPosition=center;verticalLabelPosition=top;" edge="1" parent="1" source="gm0JFeF3O6ndESceIS2O-4" target="gm0JFeF3O6ndESceIS2O-1">
          <mxGeometry x="-0.0008" relative="1" as="geometry">
            <mxPoint as="offset" />
          </mxGeometry>
        </mxCell>
        <mxCell id="gm0JFeF3O6ndESceIS2O-7" value="loiter radius" style="edgeStyle=none;rounded=0;orthogonalLoop=1;jettySize=auto;html=1;exitX=0.5;exitY=1;exitDx=0;exitDy=0;entryX=0.5;entryY=0;entryDx=0;entryDy=0;strokeColor=default;align=center;verticalAlign=top;fontFamily=Helvetica;fontSize=11;fontColor=default;labelBackgroundColor=none;startArrow=open;startFill=0;endArrow=open;endFill=0;labelPosition=center;verticalLabelPosition=bottom;horizontal=0;" edge="1" parent="1" source="gm0JFeF3O6ndESceIS2O-4" target="gm0JFeF3O6ndESceIS2O-6">
          <mxGeometry relative="1" as="geometry" />
        </mxCell>
        <mxCell id="gm0JFeF3O6ndESceIS2O-4" value="wpt" style="ellipse;whiteSpace=wrap;html=1;aspect=fixed;fillColor=#000000;strokeColor=none;labelPosition=center;verticalLabelPosition=top;align=center;verticalAlign=bottom;labelBackgroundColor=none;" vertex="1" parent="1">
          <mxGeometry x="240" y="240" width="10" height="10" as="geometry" />
        </mxCell>
        <mxCell id="gm0JFeF3O6ndESceIS2O-6" value="wp" style="ellipse;whiteSpace=wrap;html=1;aspect=fixed;fillColor=#000000;strokeColor=none;labelPosition=center;verticalLabelPosition=bottom;align=center;verticalAlign=top;labelBackgroundColor=none;" vertex="1" parent="1">
          <mxGeometry x="240" y="400" width="10" height="10" as="geometry" />
        </mxCell>
        <mxCell id="gm0JFeF3O6ndESceIS2O-10" value="" style="endArrow=open;html=1;rounded=0;strokeColor=default;align=center;verticalAlign=middle;fontFamily=Helvetica;fontSize=11;fontColor=default;labelBackgroundColor=default;endFill=0;" edge="1" parent="1">
          <mxGeometry width="50" height="50" relative="1" as="geometry">
            <mxPoint x="404.8" y="405" as="sourcePoint" />
            <mxPoint x="404.8" y="415" as="targetPoint" />
          </mxGeometry>
        </mxCell>
        <mxCell id="gm0JFeF3O6ndESceIS2O-11" value="" style="endArrow=none;html=1;rounded=0;strokeColor=default;align=center;verticalAlign=middle;fontFamily=Helvetica;fontSize=11;fontColor=default;labelBackgroundColor=default;endFill=0;startArrow=open;startFill=0;" edge="1" parent="1">
          <mxGeometry width="50" height="50" relative="1" as="geometry">
            <mxPoint x="85" y="405" as="sourcePoint" />
            <mxPoint x="85" y="415" as="targetPoint" />
          </mxGeometry>
        </mxCell>
        <mxCell id="gm0JFeF3O6ndESceIS2O-12" value="lp:&lt;div&gt;wpt:&lt;/div&gt;&lt;div&gt;wp:&lt;/div&gt;&lt;div&gt;fp:&lt;/div&gt;" style="text;html=1;align=left;verticalAlign=middle;whiteSpace=wrap;rounded=0;fontFamily=Helvetica;fontSize=11;fontColor=default;labelBackgroundColor=none;fontStyle=1" vertex="1" parent="1">
          <mxGeometry x="430" y="300" width="30" height="60" as="geometry" />
        </mxCell>
        <mxCell id="gm0JFeF3O6ndESceIS2O-13" value="Landing Point&lt;div&gt;Waiting Point tangent&lt;/div&gt;&lt;div&gt;Waiting Point&lt;/div&gt;&lt;div&gt;Fly-over Point&lt;/div&gt;" style="text;html=1;align=left;verticalAlign=middle;whiteSpace=wrap;rounded=0;fontFamily=Helvetica;fontSize=11;fontColor=default;labelBackgroundColor=none;" vertex="1" parent="1">
          <mxGeometry x="460" y="300" width="110" height="60" as="geometry" />
        </mxCell>
        <mxCell id="gm0JFeF3O6ndESceIS2O-14" value="wind direction" style="endArrow=classic;html=1;rounded=0;strokeColor=default;align=center;verticalAlign=bottom;fontFamily=Helvetica;fontSize=11;fontColor=default;labelBackgroundColor=none;labelPosition=center;verticalLabelPosition=top;endFill=1;strokeWidth=2;spacingBottom=2;" edge="1" parent="1">
          <mxGeometry width="50" height="50" relative="1" as="geometry">
            <mxPoint x="425" y="230" as="sourcePoint" />
            <mxPoint x="385" y="230" as="targetPoint" />
          </mxGeometry>
        </mxCell>
      </root>
    </mxGraphModel>
  </diagram>
</mxfile>
